<svg width="30" height="22" viewBox="0 0 28 32" fill="none" xmlns="http://www.w3.org/2000/svg">
<path d="M13.9792 0.315104C13.626 0.320625 13.2894 0.466038 13.0434 0.71943C12.7973 0.972822 12.6618 1.31349 12.6667 1.66667V2.33333H5.33333C5.15671 2.33094 4.98138 2.36365 4.81751 2.42958C4.65364 2.49551 4.5045 2.59334 4.37876 2.71739C4.25301 2.84144 4.15316 2.98924 4.08501 3.1522C4.01686 3.31516 3.98177 3.49003 3.98177 3.66667H2C1.82332 3.66417 1.6479 3.69681 1.48394 3.76269C1.31998 3.82858 1.17076 3.92639 1.04493 4.05045C0.919103 4.17451 0.819188 4.32234 0.750991 4.48535C0.682794 4.64836 0.647675 4.8233 0.647675 5C0.647675 5.1767 0.682794 5.35164 0.750991 5.51465C0.819188 5.67766 0.919103 5.82549 1.04493 5.94955C1.17076 6.07361 1.31998 6.17142 1.48394 6.23731C1.6479 6.30319 1.82332 6.33583 2 6.33333H26C26.1767 6.33583 26.3521 6.30319 26.5161 6.23731C26.68 6.17142 26.8292 6.07361 26.9551 5.94955C27.0809 5.82549 27.1808 5.67766 27.249 5.51465C27.3172 5.35164 27.3523 5.1767 27.3523 5C27.3523 4.8233 27.3172 4.64836 27.249 4.48535C27.1808 4.32234 27.0809 4.17451 26.9551 4.05045C26.8292 3.92639 26.68 3.82858 26.5161 3.76269C26.3521 3.69681 26.1767 3.66417 26 3.66667H24.0182C24.0182 3.49003 23.9831 3.31516 23.915 3.1522C23.8468 2.98924 23.747 2.84144 23.6212 2.71739C23.4955 2.59334 23.3464 2.49551 23.1825 2.42958C23.0186 2.36365 22.8433 2.33094 22.6667 2.33333H15.3333V1.66667C15.3358 1.48828 15.3024 1.31122 15.2352 1.14596C15.168 0.980711 15.0683 0.830626 14.942 0.704598C14.8157 0.578569 14.6654 0.47916 14.5001 0.412257C14.3347 0.345354 14.1575 0.312318 13.9792 0.315104ZM2 9L4.39062 29.3125C4.54796 30.6552 5.68446 31.6667 7.03646 31.6667H20.9635C22.3155 31.6667 23.4507 30.6552 23.6094 29.3125L26 9H2Z" fill="#FF0707"/>
</svg>
