<svg width="36" height="40" viewBox="0 0 36 40" fill="none" xmlns="http://www.w3.org/2000/svg">
<path d="M27.5713 16.5538L18.9463 7.92876C18.6863 7.66878 18.3413 7.55749 18 7.57499C17.6588 7.55749 17.3137 7.66872 17.0538 7.92876L8.42997 16.5538C7.94122 17.0412 7.94122 17.8338 8.42997 18.3213C8.91745 18.81 9.70998 18.81 10.1975 18.3213L16.75 11.7675V38.7501C16.75 39.44 17.31 39.9999 18 39.9999C18.69 39.9999 19.25 39.44 19.25 38.7501V11.7675L25.8038 18.3213C26.2912 18.81 27.0838 18.81 27.5713 18.3213C28.0588 17.8325 28.0588 17.0413 27.5713 16.5538ZM30.5 0H5.50003C2.73874 0 0.5 2.23874 0.5 5.00003V30.0001C0.5 32.7613 2.73874 35.0001 5.50003 35.0001H9.25001V32.5H5.50003C4.12004 32.5 3.00004 31.3814 3.00004 30.0001V5.00003C3.00004 3.61879 4.12004 2.50004 5.50003 2.50004H30.5001C31.8813 2.50004 33.0001 3.61879 33.0001 5.00003V30.0001C33.0001 31.3814 31.8801 32.5 30.5001 32.5H26.7501V35H30.5001C33.2613 35 35.5001 32.7613 35.5001 30.0001V5.00003C35.5 2.23874 33.2612 0 30.5 0Z" fill="white"/>
</svg>
