<svg width="30px" height="30px" viewBox="0 0 29 25" fill="none" xmlns="http://www.w3.org/2000/svg">
<g clip-path="url(#clip0_46_2)">
<path d="M28.0585 5.61373L22.4414 0.698769C21.8387 0.171322 21.0211 -0.124996 20.1686 -0.125H2.21429C0.439062 -0.125 -1 1.13418 -1 2.6875V23.3125C-1 24.8658 0.439062 26.125 2.21429 26.125H25.7857C27.5609 26.125 29 24.8658 29 23.3125V7.60246C29 6.85654 28.6613 6.14117 28.0585 5.61373ZM17.2143 2.6875V7.375H8.64286V2.6875H17.2143ZM25.3839 23.3125H2.61607C2.50951 23.3125 2.40732 23.2755 2.33197 23.2095C2.25662 23.1436 2.21429 23.0542 2.21429 22.9609V3.03906C2.21429 2.94582 2.25662 2.8564 2.33197 2.79047C2.40732 2.72454 2.50951 2.6875 2.61607 2.6875H5.42857V8.78125C5.42857 9.55791 6.1481 10.1875 7.03571 10.1875H18.8214C19.709 10.1875 20.4286 9.55791 20.4286 8.78125V2.91496L25.6681 7.49951C25.7054 7.53216 25.735 7.57092 25.7551 7.61358C25.7753 7.65624 25.7857 7.70195 25.7857 7.74812V22.9609C25.7857 23.0542 25.7434 23.1436 25.668 23.2095C25.5927 23.2755 25.4905 23.3125 25.3839 23.3125ZM14 11.5938C10.7507 11.5938 8.10714 13.9069 8.10714 16.75C8.10714 19.5931 10.7507 21.9062 14 21.9062C17.2493 21.9062 19.8929 19.5931 19.8929 16.75C19.8929 13.9069 17.2493 11.5938 14 11.5938ZM14 19.0938C12.523 19.0938 11.3214 18.0423 11.3214 16.75C11.3214 15.4577 12.523 14.4062 14 14.4062C15.477 14.4062 16.6786 15.4577 16.6786 16.75C16.6786 18.0423 15.477 19.0938 14 19.0938Z" fill="black"/>
</g>
<defs>
<clipPath id="clip0_46_2">
<rect width="29" height="25" fill="white"/>
</clipPath>
</defs>
</svg>
