<svg width="600" height="600" viewBox="0 0 345 316" fill="none" xmlns="http://www.w3.org/2000/svg">
<g clip-path="url(#clip0_0_1)">
<path d="M326.115 198.393C312.636 225.027 288.757 252.624 259.755 257.89C215.932 265.848 205.926 301.68 131.21 288.335C120.267 286.436 109.591 283.267 99.4066 278.894C94.3927 276.718 89.5357 274.208 84.8694 271.381C43.5781 246.35 26.4203 201.103 30.5904 156.665C36.0322 98.2162 77.4127 75.4933 104.059 62.5346C130.706 49.576 168.76 -9.42882 242.319 3.06875C253.587 4.93584 264.571 8.19013 275.013 12.755C298.896 23.3169 321.984 42.7307 333.486 68.1561C334.351 70.0651 335.159 72.0081 335.911 73.9852C350.632 112.577 344.489 162.082 326.115 198.393Z" fill="#1DCC48"/>
<path opacity="0.7" d="M326.115 198.393C312.636 225.027 288.757 252.624 259.755 257.89C215.932 265.848 205.926 301.68 131.21 288.335C120.267 286.436 109.591 283.267 99.4066 278.894C94.3927 276.718 89.5357 274.208 84.8694 271.381C43.5781 246.35 26.4203 201.103 30.5904 156.665C36.0322 98.2163 77.4127 75.4933 104.059 62.5346C130.706 49.576 168.76 -9.42882 242.319 3.06875C253.587 4.93584 264.571 8.19013 275.013 12.755C298.896 23.3169 321.984 42.7307 333.486 68.1561C334.351 70.0651 335.159 72.0081 335.911 73.9852C350.632 112.577 344.489 162.082 326.115 198.393Z" fill="white" fill-opacity="0.22"/>
<path d="M102.241 106.878L102.282 81.6784L117.168 81.7021L117.161 86.0941L106.667 86.0774L106.658 91.1894L115.424 91.2033L115.417 95.5953L106.651 95.5814L106.633 106.885L102.241 106.878ZM131.909 88.9256L136.301 88.9326L136.272 106.933L131.88 106.926L131.685 104.693C131.192 105.497 130.537 106.149 129.72 106.652C128.915 107.143 127.961 107.387 126.857 107.386C125.525 107.383 124.277 107.129 123.114 106.624C121.951 106.118 120.926 105.42 120.04 104.531C119.165 103.641 118.477 102.614 117.975 101.449C117.484 100.285 117.24 99.0363 117.243 97.7043C117.245 96.4203 117.48 95.2146 117.95 94.0874C118.432 92.9601 119.1 91.9712 119.953 91.1206C120.806 90.2699 121.791 89.6055 122.908 89.1273C124.025 88.6491 125.225 88.411 126.509 88.413C127.697 88.4149 128.759 88.6806 129.694 89.2101C130.641 89.7396 131.444 90.4129 132.103 91.2299L131.909 88.9256ZM126.756 103.155C127.692 103.157 128.52 102.924 129.241 102.457C129.962 101.991 130.527 101.361 130.936 100.57C131.345 99.7667 131.551 98.8851 131.552 97.9251C131.554 96.9531 131.351 96.0708 130.944 95.2781C130.538 94.4735 129.969 93.8365 129.237 93.3674C128.518 92.8982 127.697 92.6629 126.773 92.6614C125.849 92.66 125.002 92.8986 124.233 93.3774C123.477 93.8442 122.87 94.4732 122.412 95.2645C121.967 96.0558 121.744 96.9374 121.742 97.9094C121.741 98.8814 121.967 99.7638 122.422 100.557C122.877 101.349 123.482 101.98 124.237 102.449C125.004 102.919 125.844 103.154 126.756 103.155ZM150.676 101.538L154.632 103.686C153.802 104.813 152.763 105.717 151.514 106.399C150.265 107.081 148.902 107.421 147.426 107.418C145.77 107.416 144.259 106.987 142.892 106.133C141.538 105.279 140.454 104.137 139.64 102.708C138.838 101.267 138.439 99.6761 138.441 97.9361C138.443 96.6161 138.679 95.3864 139.149 94.2472C139.619 93.0959 140.263 92.089 141.08 91.2263C141.909 90.3516 142.871 89.6691 143.963 89.1789C145.056 88.6886 146.221 88.4445 147.457 88.4464C148.933 88.4488 150.294 88.793 151.541 89.4789C152.788 90.1649 153.824 91.0846 154.65 92.2379L150.687 94.3556C150.268 93.8749 149.77 93.5021 149.195 93.2372C148.631 92.9723 148.05 92.8394 147.45 92.8384C146.586 92.837 145.805 93.0758 145.108 93.5547C144.412 94.0216 143.859 94.6447 143.449 95.424C143.04 96.1914 142.835 97.0311 142.833 97.9431C142.832 98.8431 143.035 99.6834 143.441 100.464C143.848 101.233 144.399 101.852 145.094 102.321C145.79 102.79 146.569 103.025 147.433 103.026C148.057 103.027 148.651 102.896 149.216 102.633C149.78 102.358 150.267 101.993 150.676 101.538ZM147.542 113.719C146.69 113.945 145.88 113.836 145.113 113.391C144.345 112.945 143.848 112.297 143.622 111.444L145.855 110.854C145.914 111.082 146.052 111.256 146.268 111.377C146.484 111.497 146.712 111.527 146.952 111.468C147.192 111.408 147.372 111.27 147.492 111.055C147.625 110.851 147.655 110.623 147.584 110.371C147.524 110.131 147.392 109.956 147.188 109.848C146.985 109.752 146.751 109.715 146.487 109.739L144.182 109.825L146.728 105.365L148.742 106.556L148.056 107.725C148.488 107.894 148.859 108.159 149.171 108.519C149.494 108.88 149.715 109.306 149.834 109.798C150.061 110.651 149.952 111.46 149.507 112.228C149.061 112.995 148.407 113.492 147.542 113.719ZM170.897 88.9878L175.289 88.9948L175.26 106.995L170.868 106.988L170.674 104.755C170.18 105.559 169.525 106.212 168.708 106.714C167.904 107.205 166.949 107.45 165.845 107.448C164.513 107.446 163.266 107.192 162.103 106.686C160.939 106.18 159.914 105.482 159.028 104.593C158.153 103.704 157.465 102.676 156.963 101.512C156.473 100.347 156.229 99.0984 156.231 97.7664C156.233 96.4824 156.469 95.2768 156.939 94.1496C157.42 93.0223 158.088 92.0334 158.941 91.1827C159.795 90.3321 160.78 89.6677 161.896 89.1895C163.013 88.7112 164.214 88.4732 165.498 88.4752C166.686 88.4771 167.747 88.7428 168.682 89.2723C169.629 89.8018 170.432 90.4751 171.091 91.2921L170.897 88.9878ZM165.744 103.218C166.68 103.219 167.508 102.986 168.229 102.52C168.95 102.053 169.515 101.424 169.924 100.632C170.333 99.8289 170.539 98.9473 170.54 97.9873C170.542 97.0153 170.339 96.1329 169.933 95.3403C169.526 94.5356 168.957 93.8987 168.226 93.4296C167.506 92.9604 166.685 92.7251 165.761 92.7236C164.837 92.7221 163.99 92.9608 163.222 93.4396C162.465 93.9064 161.858 94.5354 161.401 95.3267C160.955 96.118 160.732 96.9996 160.73 97.9716C160.729 98.9436 160.955 99.826 161.41 100.619C161.865 101.411 162.47 102.042 163.225 102.512C163.992 102.981 164.832 103.216 165.744 103.218ZM195.414 107.495C193.759 107.492 192.247 107.064 190.881 106.21C189.526 105.356 188.442 104.214 187.628 102.785C186.826 101.343 186.427 99.7526 186.43 98.0126C186.432 96.6926 186.668 95.463 187.137 94.3237C187.607 93.1725 188.251 92.1655 189.068 91.3028C189.898 90.4281 190.859 89.7456 191.952 89.2554C193.044 88.7651 194.209 88.521 195.445 88.523C197.101 88.5256 198.606 88.954 199.961 89.8082C201.327 90.6623 202.412 91.8101 203.213 93.2514C204.027 94.6927 204.432 96.2893 204.43 98.0413C204.428 99.3493 204.192 100.573 203.722 101.712C203.252 102.851 202.602 103.858 201.773 104.733C200.956 105.596 200 106.272 198.908 106.763C197.827 107.253 196.662 107.497 195.414 107.495ZM195.422 103.103C196.298 103.104 197.084 102.872 197.781 102.405C198.477 101.938 199.024 101.321 199.422 100.553C199.831 99.786 200.036 98.9463 200.038 98.0343C200.039 97.0983 199.83 96.246 199.412 95.4773C199.005 94.6966 198.448 94.0778 197.741 93.6206C197.045 93.1515 196.278 92.9163 195.438 92.915C194.574 92.9136 193.793 93.1463 193.097 93.6132C192.4 94.0801 191.847 94.7032 191.438 95.4826C191.028 96.2619 190.823 97.1076 190.822 98.0196C190.82 98.9676 191.029 99.8259 191.447 100.595C191.866 101.363 192.423 101.976 193.119 102.433C193.826 102.878 194.594 103.102 195.422 103.103ZM216.288 107.06L216.331 80.0603L220.723 80.0673L220.68 107.067L216.288 107.06ZM232.645 107.554C230.989 107.552 229.478 107.123 228.111 106.269C226.756 105.415 225.672 104.273 224.858 102.844C224.057 101.403 223.657 99.812 223.66 98.072C223.662 96.752 223.898 95.5223 224.368 94.3831C224.838 93.2318 225.481 92.2249 226.299 91.3622C227.128 90.4875 228.089 89.805 229.182 89.3148C230.275 88.8245 231.439 88.5804 232.675 88.5823C234.331 88.585 235.836 89.0134 237.191 89.8675C238.558 90.7217 239.642 91.8694 240.444 93.3107C241.257 94.752 241.663 96.3487 241.66 98.1007C241.658 99.4087 241.422 100.632 240.952 101.772C240.482 102.911 239.833 103.918 239.003 104.792C238.186 105.655 237.231 106.332 236.138 106.822C235.057 107.312 233.893 107.556 232.645 107.554ZM232.652 103.162C233.528 103.164 234.314 102.931 235.011 102.464C235.708 101.997 236.255 101.38 236.652 100.613C237.061 99.8453 237.267 99.0057 237.268 98.0937C237.27 97.1577 237.061 96.3053 236.642 95.5367C236.235 94.756 235.678 94.1371 234.971 93.68C234.276 93.2109 233.508 92.9757 232.668 92.9743C231.804 92.973 231.024 93.2057 230.327 93.6726C229.63 94.1395 229.077 94.7626 228.668 95.542C228.259 96.3213 228.053 97.167 228.052 98.079C228.051 99.027 228.259 99.8853 228.678 100.654C229.097 101.423 229.654 102.036 230.349 102.493C231.056 102.938 231.824 103.161 232.652 103.162ZM257.903 89.1266L262.295 89.1336L262.266 107.476C262.264 108.772 261.998 109.947 261.468 111.002C260.939 112.069 260.217 112.98 259.304 113.735C258.391 114.501 257.346 115.088 256.169 115.494C254.993 115.912 253.756 116.12 252.46 116.118C251.2 116.116 249.989 115.856 248.825 115.338C247.662 114.82 246.631 114.111 245.733 113.209C244.846 112.32 244.17 111.305 243.704 110.164L247.721 108.352C247.96 109.013 248.319 109.589 248.798 110.082C249.289 110.587 249.852 110.978 250.488 111.255C251.124 111.544 251.783 111.689 252.467 111.69C253.163 111.691 253.829 111.596 254.466 111.405C255.114 111.214 255.697 110.933 256.213 110.562C256.73 110.203 257.132 109.759 257.421 109.232C257.722 108.716 257.873 108.129 257.874 107.469L257.878 104.931C257.313 105.722 256.604 106.363 255.751 106.853C254.898 107.344 253.914 107.588 252.798 107.586C251.502 107.584 250.29 107.336 249.163 106.843C248.036 106.349 247.041 105.669 246.178 104.804C245.328 103.927 244.657 102.917 244.167 101.777C243.689 100.636 243.451 99.4115 243.453 98.1035C243.455 96.7955 243.697 95.5719 244.179 94.4327C244.673 93.2935 245.346 92.2925 246.2 91.4299C247.065 90.5553 248.062 89.8729 249.191 89.3827C250.32 88.8925 251.532 88.6484 252.828 88.6505C253.944 88.6523 254.928 88.8998 255.779 89.3932C256.63 89.8745 257.337 90.5117 257.9 91.3046L257.903 89.1266ZM252.859 103.357C253.783 103.358 254.599 103.125 255.308 102.658C256.028 102.18 256.594 101.544 257.003 100.753C257.412 99.9498 257.617 99.0741 257.619 98.1261C257.62 97.1661 257.412 96.2898 256.993 95.4971C256.586 94.7045 256.023 94.0676 255.304 93.5864C254.597 93.1053 253.787 92.864 252.875 92.8626C251.975 92.8611 251.153 93.0998 250.408 93.5786C249.663 94.0454 249.068 94.6745 248.623 95.4658C248.178 96.2571 247.955 97.1387 247.953 98.1107C247.951 99.0827 248.172 99.9651 248.615 100.758C249.057 101.55 249.65 102.181 250.394 102.651C251.137 103.12 251.959 103.355 252.859 103.357ZM266.204 89.1398L270.596 89.1468L270.567 107.147L266.175 107.14L266.204 89.1398ZM268.439 86.8214C267.791 86.8203 267.246 86.6095 266.802 86.1888C266.359 85.756 266.138 85.2157 266.139 84.5677C266.14 83.9317 266.363 83.3981 266.807 82.9668C267.252 82.5355 267.792 82.3203 268.428 82.3213C269.064 82.3224 269.598 82.5392 270.029 82.9719C270.473 83.4046 270.694 83.939 270.693 84.575C270.692 85.223 270.475 85.7626 270.042 86.1939C269.61 86.6132 269.075 86.8224 268.439 86.8214ZM291.259 95.8038L291.241 107.18L286.849 107.173L286.865 96.9488C286.866 96.2408 286.693 95.5985 286.346 95.0219C285.999 94.4334 285.532 93.9706 284.945 93.6337C284.369 93.2848 283.727 93.1098 283.019 93.1086C282.311 93.1075 281.663 93.2805 281.075 93.6275C280.498 93.9626 280.035 94.4239 279.686 95.0113C279.349 95.5868 279.18 96.2285 279.179 96.9365L279.163 107.16L274.771 107.153L274.782 89.1535L279.174 89.1605L279.189 90.7625C279.802 90.1155 280.535 89.6067 281.388 89.236C282.24 88.8534 283.158 88.6628 284.142 88.6644C285.45 88.6665 286.644 88.9924 287.723 89.6421C288.802 90.2798 289.659 91.1392 290.293 92.2202C290.939 93.2893 291.261 94.4838 291.259 95.8038ZM110.092 150.359C108.436 150.356 106.925 149.928 105.558 149.074C104.204 148.22 103.119 147.072 102.306 145.63C101.504 144.189 101.104 142.599 101.107 140.859C101.109 139.551 101.345 138.327 101.815 137.188C102.285 136.036 102.929 135.029 103.746 134.167C104.575 133.292 105.536 132.61 106.629 132.119C107.722 131.629 108.886 131.385 110.122 131.387C111.526 131.389 112.81 131.691 113.973 132.293C115.148 132.883 116.143 133.695 116.957 134.728C117.771 135.761 118.364 136.938 118.733 138.259C119.103 139.579 119.185 140.959 118.979 142.399L105.821 142.378C105.988 143.05 106.263 143.657 106.646 144.197C107.029 144.726 107.514 145.153 108.102 145.478C108.689 145.791 109.355 145.954 110.099 145.967C110.867 145.98 111.563 145.801 112.188 145.43C112.825 145.047 113.353 144.532 113.774 143.885L118.255 144.936C117.52 146.531 116.426 147.837 114.973 148.855C113.519 149.86 111.892 150.362 110.092 150.359ZM105.682 139.084L114.538 139.098C114.407 138.378 114.126 137.729 113.695 137.153C113.276 136.564 112.755 136.095 112.131 135.746C111.508 135.397 110.836 135.222 110.116 135.221C109.396 135.22 108.73 135.393 108.117 135.74C107.505 136.075 106.982 136.536 106.549 137.123C106.128 137.699 105.839 138.352 105.682 139.084ZM140.636 136.332L137.144 136.326L137.122 149.934L132.73 149.927L132.752 136.319L130.088 136.315L130.095 131.923L132.759 131.927L132.768 126.275L137.16 126.282L137.151 131.934L140.643 131.94L140.636 136.332ZM151.366 150.425C149.71 150.422 148.198 149.994 146.832 149.14C145.477 148.285 144.393 147.138 143.579 145.696C142.777 144.255 142.378 142.664 142.381 140.924C142.383 139.616 142.619 138.393 143.089 137.254C143.558 136.102 144.202 135.095 145.019 134.233C145.849 133.358 146.81 132.675 147.903 132.185C148.995 131.695 150.16 131.451 151.396 131.453C152.8 131.455 154.083 131.757 155.246 132.359C156.421 132.949 157.416 133.76 158.23 134.794C159.045 135.827 159.637 137.004 160.007 138.325C160.377 139.645 160.459 141.025 160.252 142.465L147.094 142.444C147.261 143.116 147.536 143.723 147.919 144.263C148.302 144.792 148.788 145.219 149.375 145.544C149.963 145.856 150.629 146.02 151.373 146.033C152.14 146.046 152.837 145.867 153.461 145.496C154.098 145.113 154.627 144.598 155.048 143.951L159.528 145.002C158.794 146.597 157.7 147.903 156.246 148.921C154.792 149.926 153.166 150.428 151.366 150.425ZM146.955 139.15L155.811 139.164C155.681 138.444 155.4 137.795 154.969 137.218C154.55 136.63 154.028 136.161 153.405 135.812C152.781 135.463 152.11 135.288 151.39 135.287C150.67 135.286 150.003 135.459 149.391 135.806C148.778 136.141 148.256 136.602 147.823 137.189C147.402 137.764 147.113 138.418 146.955 139.15ZM179.675 138.626L179.657 150.002L175.265 149.995L175.281 139.771C175.282 139.063 175.109 138.421 174.762 137.844C174.415 137.255 173.948 136.793 173.36 136.456C172.785 136.107 172.143 135.932 171.435 135.931C170.727 135.93 170.079 136.103 169.49 136.45C168.914 136.785 168.451 137.246 168.102 137.833C167.765 138.409 167.596 139.051 167.595 139.759L167.579 149.983L163.187 149.976L163.198 131.976L167.59 131.983L167.605 133.585C168.218 132.938 168.951 132.429 169.803 132.058C170.656 131.675 171.574 131.485 172.558 131.487C173.866 131.489 175.06 131.815 176.139 132.464C177.218 133.102 178.074 133.961 178.709 135.042C179.355 136.111 179.677 137.306 179.675 138.626ZM199.855 138.658L199.837 150.034L195.445 150.027L195.461 139.803C195.462 139.095 195.289 138.453 194.942 137.876C194.595 137.288 194.128 136.825 193.54 136.488C192.965 136.139 192.323 135.964 191.615 135.963C190.907 135.962 190.259 136.135 189.67 136.482C189.094 136.817 188.631 137.278 188.282 137.866C187.945 138.441 187.776 139.083 187.775 139.791L187.759 150.015L183.367 150.008L183.392 123.008L187.784 123.015L187.785 133.617C188.398 132.97 189.131 132.461 189.983 132.09C190.836 131.708 191.754 131.517 192.738 131.519C194.046 131.521 195.24 131.847 196.319 132.496C197.397 133.134 198.254 133.993 198.888 135.075C199.535 136.144 199.857 137.338 199.855 138.658ZM216.672 132.061L221.064 132.068L221.035 150.068L216.643 150.061L216.449 147.829C215.955 148.632 215.3 149.285 214.484 149.787C213.679 150.278 212.724 150.523 211.62 150.521C210.288 150.519 209.041 150.265 207.878 149.759C206.714 149.253 205.69 148.555 204.803 147.666C203.928 146.777 203.24 145.749 202.738 144.585C202.248 143.42 202.004 142.171 202.006 140.839C202.008 139.555 202.244 138.35 202.714 137.223C203.195 136.095 203.863 135.106 204.716 134.256C205.57 133.405 206.555 132.741 207.672 132.263C208.788 131.784 209.989 131.546 211.273 131.548C212.461 131.55 213.522 131.816 214.457 132.345C215.405 132.875 216.208 133.548 216.866 134.365L216.672 132.061ZM211.519 146.291C212.455 146.292 213.284 146.059 214.004 145.593C214.725 145.126 215.29 144.497 215.699 143.705C216.109 142.902 216.314 142.02 216.316 141.06C216.317 140.088 216.114 139.206 215.708 138.413C215.301 137.609 214.732 136.972 214.001 136.503C213.282 136.033 212.46 135.798 211.536 135.797C210.612 135.795 209.766 136.034 208.997 136.513C208.24 136.979 207.633 137.608 207.176 138.4C206.73 139.191 206.507 140.073 206.506 141.045C206.504 142.017 206.731 142.899 207.185 143.692C207.64 144.484 208.245 145.115 209 145.585C209.768 146.054 210.607 146.289 211.519 146.291ZM246.871 132.109L251.263 132.116L251.234 150.116L246.842 150.109L246.648 147.877C246.155 148.68 245.5 149.333 244.683 149.836C243.878 150.326 242.924 150.571 241.82 150.569C240.488 150.567 239.24 150.313 238.077 149.807C236.914 149.301 235.889 148.604 235.002 147.714C234.128 146.825 233.439 145.798 232.937 144.633C232.447 143.468 232.203 142.22 232.205 140.888C232.207 139.604 232.443 138.398 232.913 137.271C233.395 136.144 234.062 135.155 234.916 134.304C235.769 133.453 236.754 132.789 237.871 132.311C238.987 131.832 240.188 131.594 241.472 131.596C242.66 131.598 243.721 131.864 244.657 132.393C245.604 132.923 246.407 133.596 247.065 134.413L246.871 132.109ZM241.718 146.339C242.654 146.34 243.483 146.108 244.203 145.641C244.924 145.174 245.489 144.545 245.898 143.753C246.308 142.95 246.513 142.068 246.515 141.108C246.516 140.136 246.314 139.254 245.907 138.462C245.5 137.657 244.931 137.02 244.2 136.551C243.481 136.082 242.659 135.846 241.735 135.845C240.811 135.843 239.965 136.082 239.196 136.561C238.439 137.028 237.832 137.657 237.375 138.448C236.93 139.239 236.706 140.121 236.705 141.093C236.703 142.065 236.93 142.947 237.384 143.74C237.839 144.533 238.444 145.164 239.199 145.633C239.967 146.102 240.806 146.337 241.718 146.339ZM265.638 144.721L269.595 146.869C268.765 147.996 267.726 148.9 266.476 149.582C265.227 150.264 263.865 150.604 262.389 150.602C260.733 150.599 259.221 150.171 257.855 149.317C256.5 148.462 255.416 147.321 254.602 145.891C253.801 144.45 253.401 142.859 253.404 141.119C253.406 139.799 253.642 138.57 254.112 137.431C254.582 136.279 255.225 135.272 256.043 134.41C256.872 133.535 257.833 132.853 258.926 132.362C260.019 131.872 261.183 131.628 262.419 131.63C263.895 131.632 265.257 131.976 266.503 132.662C267.75 133.348 268.787 134.268 269.613 135.421L265.65 137.539C265.23 137.058 264.733 136.686 264.157 136.421C263.594 136.156 263.012 136.023 262.412 136.022C261.548 136.02 260.768 136.259 260.071 136.738C259.374 137.205 258.821 137.828 258.412 138.607C258.003 139.375 257.797 140.214 257.796 141.126C257.794 142.026 257.997 142.867 258.404 143.647C258.811 144.416 259.362 145.035 260.057 145.504C260.752 145.973 261.532 146.208 262.396 146.21C263.02 146.211 263.614 146.08 264.178 145.817C264.743 145.542 265.229 145.176 265.638 144.721ZM280.178 150.63C278.522 150.628 277.011 150.199 275.644 149.345C274.289 148.491 273.205 147.343 272.391 145.902C271.59 144.46 271.19 142.87 271.193 141.13C271.195 139.822 271.431 138.598 271.901 137.459C272.371 136.308 273.014 135.301 273.832 134.438C274.661 133.563 275.622 132.881 276.715 132.391C277.808 131.9 278.972 131.656 280.208 131.658C281.612 131.66 282.896 131.962 284.059 132.564C285.234 133.154 286.228 133.966 287.043 134.999C287.857 136.032 288.449 137.209 288.819 138.53C289.189 139.851 289.271 141.231 289.065 142.67L275.907 142.649C276.073 143.322 276.349 143.928 276.732 144.469C277.115 144.997 277.6 145.424 278.188 145.749C278.775 146.062 279.441 146.225 280.185 146.238C280.953 146.251 281.649 146.073 282.274 145.702C282.91 145.319 283.439 144.803 283.86 144.156L288.341 145.207C287.606 146.802 286.512 148.108 285.058 149.126C283.605 150.132 281.978 150.633 280.178 150.63ZM275.768 139.355L284.624 139.369C284.493 138.649 284.212 138.001 283.781 137.424C283.362 136.835 282.841 136.366 282.217 136.017C281.594 135.668 280.922 135.493 280.202 135.492C279.482 135.491 278.816 135.664 278.203 136.011C277.591 136.346 277.068 136.807 276.635 137.395C276.214 137.97 275.925 138.623 275.768 139.355ZM297.431 150.514C296.495 150.452 295.59 150.265 294.714 149.951C293.851 149.626 293.083 149.187 292.412 148.634C291.741 148.081 291.226 147.42 290.867 146.651L294.578 145.073C294.722 145.313 294.955 145.572 295.279 145.848C295.602 146.113 295.986 146.335 296.43 146.516C296.885 146.697 297.383 146.788 297.923 146.788C298.379 146.789 298.811 146.73 299.22 146.611C299.64 146.479 299.976 146.282 300.229 146.018C300.493 145.755 300.625 145.413 300.626 144.993C300.627 144.549 300.471 144.207 300.16 143.966C299.86 143.714 299.476 143.527 299.009 143.406C298.553 143.273 298.109 143.153 297.677 143.044C296.538 142.814 295.476 142.459 294.493 141.977C293.522 141.495 292.737 140.876 292.138 140.119C291.551 139.35 291.259 138.426 291.26 137.346C291.262 136.158 291.576 135.132 292.201 134.269C292.839 133.406 293.662 132.742 294.67 132.275C295.691 131.809 296.79 131.577 297.966 131.579C299.394 131.581 300.701 131.883 301.888 132.485C303.087 133.075 304.034 133.91 304.728 134.991L301.251 137.038C301.083 136.749 300.85 136.485 300.55 136.245C300.25 135.992 299.909 135.788 299.525 135.631C299.141 135.462 298.739 135.366 298.32 135.341C297.78 135.316 297.287 135.363 296.843 135.483C296.399 135.602 296.039 135.805 295.762 136.093C295.498 136.381 295.365 136.764 295.364 137.244C295.364 137.7 295.543 138.043 295.903 138.271C296.263 138.488 296.694 138.656 297.198 138.777C297.714 138.898 298.206 139.031 298.673 139.176C299.729 139.525 300.718 139.953 301.641 140.458C302.577 140.964 303.326 141.583 303.888 142.316C304.451 143.049 304.72 143.925 304.694 144.945C304.692 146.109 304.343 147.129 303.645 148.004C302.948 148.866 302.047 149.525 300.942 149.979C299.849 150.434 298.679 150.612 297.431 150.514ZM313.076 150.539C312.14 150.477 311.234 150.29 310.359 149.976C309.495 149.651 308.728 149.212 308.057 148.659C307.386 148.106 306.871 147.445 306.512 146.676L310.223 145.098C310.366 145.338 310.6 145.597 310.923 145.873C311.247 146.138 311.631 146.36 312.074 146.541C312.53 146.722 313.028 146.813 313.568 146.813C314.024 146.814 314.456 146.755 314.864 146.635C315.284 146.504 315.621 146.307 315.873 146.043C316.137 145.78 316.27 145.438 316.271 145.018C316.271 144.574 316.116 144.231 315.804 143.991C315.505 143.739 315.121 143.552 314.653 143.431C314.197 143.298 313.754 143.178 313.322 143.069C312.182 142.839 311.121 142.484 310.137 142.002C309.166 141.52 308.381 140.901 307.782 140.144C307.196 139.375 306.903 138.451 306.905 137.371C306.907 136.183 307.22 135.157 307.846 134.294C308.483 133.431 309.306 132.767 310.315 132.3C311.336 131.834 312.434 131.602 313.61 131.603C315.038 131.606 316.346 131.908 317.533 132.51C318.732 133.1 319.678 133.935 320.373 135.016L316.895 137.063C316.728 136.774 316.494 136.51 316.195 136.27C315.895 136.017 315.553 135.813 315.17 135.656C314.786 135.487 314.384 135.391 313.964 135.366C313.424 135.341 312.932 135.388 312.488 135.508C312.044 135.627 311.683 135.83 311.407 136.118C311.142 136.406 311.01 136.789 311.009 137.269C311.008 137.725 311.188 138.068 311.547 138.296C311.907 138.513 312.339 138.681 312.843 138.802C313.358 138.923 313.85 139.056 314.318 139.201C315.373 139.55 316.363 139.978 317.286 140.483C318.221 140.989 318.97 141.608 319.533 142.341C320.096 143.074 320.364 143.95 320.339 144.97C320.337 146.134 319.987 147.154 319.29 148.029C318.592 148.891 317.691 149.55 316.587 150.004C315.494 150.458 314.324 150.637 313.076 150.539ZM331.049 150.711C329.393 150.709 327.882 150.28 326.515 149.426C325.16 148.572 324.076 147.43 323.262 146.001C322.461 144.56 322.061 142.969 322.064 141.229C322.066 139.909 322.302 138.679 322.772 137.54C323.242 136.389 323.885 135.382 324.703 134.519C325.532 133.644 326.493 132.962 327.586 132.472C328.679 131.981 329.843 131.737 331.079 131.739C332.735 131.742 334.24 132.17 335.595 133.025C336.962 133.879 338.046 135.026 338.848 136.468C339.661 137.909 340.067 139.506 340.064 141.258C340.062 142.566 339.826 143.789 339.356 144.929C338.886 146.068 338.237 147.075 337.407 147.949C336.59 148.812 335.635 149.489 334.542 149.979C333.461 150.469 332.297 150.713 331.049 150.711ZM331.056 146.319C331.932 146.321 332.718 146.088 333.415 145.621C334.112 145.154 334.659 144.537 335.056 143.77C335.465 143.002 335.671 142.163 335.672 141.251C335.673 140.315 335.465 139.462 335.046 138.694C334.639 137.913 334.082 137.294 333.375 136.837C332.68 136.368 331.912 136.133 331.072 136.131C330.208 136.13 329.428 136.363 328.731 136.83C328.034 137.296 327.481 137.92 327.072 138.699C326.663 139.478 326.457 140.324 326.456 141.236C326.454 142.184 326.663 143.042 327.082 143.811C327.501 144.58 328.058 145.193 328.753 145.65C329.46 146.095 330.228 146.318 331.056 146.319ZM102.644 192.879L102.684 167.679L107.076 167.686L107.036 192.886L102.644 192.879ZM111.913 192.894L111.953 167.694L116.345 167.701L116.312 188.509L126.806 188.526L126.799 192.918L111.913 192.894ZM131.297 192.925L131.337 167.725L135.729 167.732L135.689 192.932L131.297 192.925ZM140.565 192.94L145.501 167.747L149.137 167.753L155.25 183.909L161.413 167.773L165.049 167.779L169.905 192.986L165.423 192.979L162.424 177.386L156.73 192.389L153.724 192.385L148.078 177.364L145.047 192.947L140.565 192.94ZM174.082 192.993L174.122 167.793L178.514 167.8L178.474 193L174.082 192.993ZM202.47 167.838L202.463 172.23L194.759 172.218L194.726 193.026L190.334 193.019L190.367 172.211L182.663 172.199L182.67 167.807L202.47 167.838ZM211.045 167.852L216.103 167.86L225.225 193.075L220.563 193.067L218.95 188.601L208.15 188.583L206.523 193.045L201.861 193.037L211.045 167.852ZM209.759 184.194L217.337 184.206L213.555 173.814L209.759 184.194ZM228.245 193.079L228.285 167.879L236.637 167.893C238.377 167.896 240.002 168.228 241.513 168.891C243.036 169.541 244.373 170.449 245.523 171.615C246.685 172.769 247.589 174.108 248.235 175.633C248.892 177.146 249.22 178.773 249.217 180.513C249.214 182.253 248.881 183.884 248.219 185.407C247.569 186.918 246.66 188.255 245.495 189.417C244.341 190.567 243.001 191.471 241.476 192.129C239.963 192.774 238.337 193.095 236.597 193.093L228.245 193.079ZM232.644 188.694L236.604 188.701C237.72 188.703 238.77 188.494 239.755 188.076C240.751 187.645 241.628 187.059 242.386 186.316C243.143 185.561 243.738 184.692 244.172 183.709C244.605 182.713 244.823 181.646 244.825 180.506C244.827 179.366 244.612 178.303 244.182 177.319C243.751 176.334 243.159 175.463 242.404 174.706C241.649 173.949 240.78 173.359 239.797 172.938C238.814 172.504 237.758 172.287 236.63 172.285L232.67 172.278L232.644 188.694ZM263.85 193.604C262.146 193.601 260.545 193.263 259.046 192.589C257.547 191.902 256.228 190.958 255.09 189.756C253.952 188.554 253.06 187.167 252.415 185.594C251.77 184.009 251.448 182.316 251.451 180.516C251.454 178.716 251.781 177.031 252.431 175.46C253.082 173.877 253.978 172.486 255.12 171.288C256.262 170.09 257.583 169.156 259.084 168.487C260.585 167.805 262.188 167.466 263.892 167.468C265.608 167.471 267.215 167.816 268.714 168.502C270.213 169.176 271.532 170.114 272.67 171.316C273.808 172.518 274.694 173.911 275.327 175.496C275.973 177.069 276.294 178.756 276.291 180.556C276.288 182.356 275.961 184.047 275.311 185.63C274.672 187.201 273.782 188.586 272.64 189.784C271.498 190.982 270.177 191.922 268.676 192.604C267.175 193.273 265.566 193.607 263.85 193.604ZM263.857 189.212C264.961 189.214 266 188.988 266.972 188.533C267.945 188.079 268.798 187.456 269.531 186.665C270.277 185.862 270.854 184.939 271.264 183.896C271.685 182.853 271.897 181.737 271.899 180.549C271.901 179.361 271.693 178.245 271.274 177.2C270.856 176.143 270.276 175.218 269.533 174.425C268.802 173.632 267.951 173.007 266.98 172.549C266.021 172.092 264.989 171.862 263.885 171.86C262.781 171.858 261.743 172.085 260.77 172.539C259.797 172.994 258.938 173.622 258.193 174.425C257.46 175.216 256.882 176.133 256.46 177.176C256.051 178.22 255.845 179.335 255.843 180.523C255.841 181.723 256.049 182.846 256.468 183.89C256.886 184.935 257.461 185.86 258.191 186.665C258.934 187.458 259.785 188.084 260.744 188.541C261.716 188.987 262.753 189.21 263.857 189.212Z" fill="#E4FFEB"/>
<path d="M69.8859 198.912C69.6322 197.218 68.6038 196.086 68.3446 195.05C68.1262 194.268 67.8413 193.511 67.4935 192.788C66.6146 194.756 65.9355 196.823 65.4683 198.954L65.2444 198.366L60.992 202.031L60.727 210.199L67.6451 210.565C67.6451 210.565 67.3638 209.213 67.2664 208.21C67.1931 207.22 67.2477 206.223 67.4286 205.25C67.4286 205.25 69.3853 205.302 69.5575 204.547C69.7296 203.792 70.1396 200.595 69.8859 198.912Z" fill="white" stroke="#263238" stroke-linecap="round" stroke-linejoin="round"/>
<path d="M68.7795 195.904C69.039 196.013 69.3091 196.088 69.5844 196.127C69.8363 196.128 70.2861 196.183 70.1366 196.849C70.0765 197.203 69.8958 197.518 69.6313 197.731L68.7795 195.904Z" fill="white" stroke="#263238" stroke-linecap="round" stroke-linejoin="round"/>
<path d="M66.5732 290.275C66.5732 290.275 65.6004 307.912 65.6 308.193C65.5995 308.475 64.4005 312.85 64.5704 313.502C64.7403 314.154 66.0985 314.344 67.034 314.439C67.9695 314.534 69.9169 314.814 70.6816 314.815C72.0195 314.796 73.3545 314.675 74.6768 314.451C75.1855 314.264 75.8656 313.708 75.2726 313.238C74.6795 312.768 73.2358 312.583 71.5388 310.439C70.7358 309.497 70.0258 308.465 69.4205 307.36L73.0462 290.472L66.5732 290.275Z" fill="white" stroke="#263238" stroke-linecap="round" stroke-linejoin="round"/>
<path d="M42.7143 286.979C42.7143 286.979 36.0683 305.027 35.5588 305.771C35.0493 306.516 31.6049 311.273 31.5 312.181C31.395 313.089 35.8078 313.204 36.5735 312.648C37.3391 312.092 38.2555 307.222 38.7654 306.236C39.2753 305.249 50.589 288.29 50.589 288.29L42.7143 286.979Z" fill="white" stroke="#263238" stroke-linecap="round" stroke-linejoin="round"/>
<path d="M53.9406 234.485L53.8098 237.515C53.8098 237.515 50.351 245.663 46.9836 255.765C43.3133 266.78 38.5325 285.857 38.5325 285.857C38.5325 285.857 41.6763 289.031 50.2209 290.559C58.7655 292.088 64.0726 292.738 68.7153 292.593C74.3341 292.414 81.4938 290.747 81.4938 290.747C81.4938 290.747 77.5198 263.735 74.2735 251.465C71.0272 239.196 70.2464 237.975 70.2464 237.975L69.1462 231.138L53.9406 234.485Z" fill="#8F8F8F" stroke="#263238" stroke-linecap="round" stroke-linejoin="round"/>
<path d="M59.238 255.36L58.2446 291.539" stroke="#263238" stroke-linecap="round" stroke-linejoin="round"/>
<path d="M59.3092 252.68L59.2715 254.102" stroke="#263238" stroke-linecap="round" stroke-linejoin="round"/>
<path d="M66.4628 238.241C66.9878 238.123 67.5009 237.981 68.002 237.814" stroke="#263238" stroke-linecap="round" stroke-linejoin="round"/>
<path d="M55.3152 238.48C58.3743 238.892 61.4658 238.928 64.5324 238.588" stroke="#263238" stroke-linecap="round" stroke-linejoin="round"/>
<path d="M85.2885 198.892C85.0816 197.891 84.933 196.877 84.8435 195.856C84.7825 194.642 83.7414 193.021 83.864 192.345C83.9865 191.669 84.6027 191.739 84.9128 191.942C85.1823 192.19 85.4102 192.488 85.5861 192.822C85.5861 192.822 86.4544 189.921 86.4565 188.638C86.4585 187.355 87.1961 187.494 87.5006 188.368C87.8051 189.242 87.3723 192.622 87.3723 192.622C87.9551 192.789 88.5286 192.992 89.0897 193.232C89.6471 193.504 90.6899 194.044 90.5028 195.731C90.3156 197.419 90.1297 198.361 89.7608 198.361C89.392 198.36 89.0824 197.822 89.0824 197.822C89.0824 197.822 89.0795 199.643 88.5254 200.18C88.0328 200.545 87.4582 200.754 86.8645 200.784C86.8645 200.784 87.0151 199.437 85.2885 198.892Z" fill="white" stroke="#263238" stroke-linecap="round" stroke-linejoin="round"/>
<path d="M89.1049 197.822C89.1049 197.822 89.4808 196.268 89.4811 196.065" stroke="#263238" stroke-linecap="round" stroke-linejoin="round"/>
<path d="M85.6086 192.822L85.2367 194.711" stroke="#263238" stroke-linecap="round" stroke-linejoin="round"/>
<path d="M83.7606 200.779L84.9201 198.629C84.9201 198.629 85.371 197.944 86.4365 198.341L86.468 198.341C86.9356 198.519 87.3239 198.885 87.5545 199.366C87.785 199.846 87.8406 200.405 87.71 200.929L87.4111 202.142C87.4111 202.142 85.0967 200.683 83.7606 200.779Z" fill="#1DCC48" stroke="#263238" stroke-linecap="round" stroke-linejoin="round"/>
<path d="M35.3292 243.832C35.3292 243.832 35.61 245.447 35.7476 246.597C35.8852 247.747 36.5788 250.053 37.0911 250.36C37.6035 250.666 38.2101 251.052 37.5125 251.283C36.8149 251.514 36.3919 251.587 35.763 251.048C35.3638 250.712 35.0034 250.324 34.6897 249.892C34.6897 249.892 34.2001 252.27 33.8474 253.424C33.46 254.464 32.9902 255.464 32.4436 256.413C32.4337 256.582 32.3877 256.747 32.3094 256.893C32.231 257.04 32.1224 257.164 31.9924 257.256C31.5737 257.487 31.2737 256.569 31.2737 256.569C31.2737 256.569 30.7091 258.009 30.3472 256.488C30.0494 254.713 29.8658 252.917 29.798 251.113C29.8667 250.343 32.7075 243.221 32.7075 243.221L35.3292 243.832Z" fill="white" stroke="#263238" stroke-linecap="round" stroke-linejoin="round"/>
<path d="M31.3436 252.27C31.1295 252.648 30.9766 253.064 30.8918 253.499C30.8913 253.804 31.2512 256.574 31.2512 256.574" stroke="#263238" stroke-linecap="round" stroke-linejoin="round"/>
<path d="M32.4435 256.418L32.0879 253.733L32.7295 251.967" stroke="#263238" stroke-linecap="round" stroke-linejoin="round"/>
<path d="M32.9353 255.501C32.9353 255.501 32.9646 254.05 33.0557 253.389C33.1467 252.727 33.2995 252.846 33.5077 252.047" stroke="#263238" stroke-linecap="round" stroke-linejoin="round"/>
<path d="M33.6439 248.439C33.5784 248.901 33.3827 249.329 33.0841 249.662C32.6181 250.13 32.1261 250.566 31.6111 250.968" stroke="#263238" stroke-linecap="round" stroke-linejoin="round"/>
<path d="M52.4573 211.192C52.4573 211.192 46.7439 214.219 46.3873 214.998C46.0307 215.777 38.8784 229.752 37.8955 231.123C36.9127 232.493 33.8779 234.246 33.5204 235.612C33.1628 236.979 33.4223 240.7 33.4223 240.7L32.703 243.241C32.703 243.241 32.7916 244.119 34.0506 244.418L35.3007 244.711L37.4456 242.464C37.4456 242.464 42.081 241.203 43.9562 238.758C45.8315 236.313 50.3976 224.88 50.3976 224.88L49.6701 232.607C53.0382 233.097 56.4438 233.2 59.8316 232.915C65.3609 232.43 71.4219 231.453 71.4219 231.453L70.6355 222.454C70.6355 222.454 83.8332 220.131 84.545 219.446C85.2568 218.761 85.8986 216.907 85.9761 216.221C86.0537 215.535 88.3148 202.435 88.3148 202.435C88.004 201.947 87.6081 201.53 87.15 201.21C86.692 200.89 86.1807 200.673 85.6457 200.57C83.775 200.177 81.9019 201.25 81.811 201.837C81.7201 202.425 77.8739 210.927 77.8739 210.927C77.8739 210.927 77.6043 210.729 76.6274 211.216C75.6504 211.703 73.9287 210.936 73.9287 210.936C73.9287 210.936 70.4847 209.839 68.5321 210.034C66.5794 210.228 64.6986 210.521 64.6986 210.521C64.6986 210.521 61.2241 208.754 58.6408 209.524C56.0575 210.295 52.4573 211.192 52.4573 211.192Z" fill="#1DCC48" stroke="#263238" stroke-linecap="round" stroke-linejoin="round"/>
<path d="M64.7367 223.338L70.6221 222.469L66.6958 224.713" stroke="#263238" stroke-linecap="round" stroke-linejoin="round"/>
<path d="M50.4812 220.483L50.3842 224.88L49.0511 223.022" stroke="#263238" stroke-linecap="round" stroke-linejoin="round"/>
<path d="M34.2224 241.091C34.2224 241.091 34.4907 242.079 36.6275 242.082" stroke="#263238" stroke-linecap="round" stroke-linejoin="round"/>
<path d="M57.3011 203.348C60.2256 205.82 62.6976 204.344 63.7476 203.181C65.0319 201.771 65.0259 199.925 65.8654 198.165C65.9744 197.523 67.9168 195.276 68.0661 194.743C68.4144 193.52 67.7521 191.372 67.7521 191.372C67.7521 191.372 69.641 191.661 68.7851 189.587C67.9292 187.513 67.1567 186.756 65.3531 186.566C64.812 186.526 64.2703 186.634 63.7762 186.879C63.2821 187.125 62.8511 187.5 62.5213 187.973C62.5213 187.973 60.3774 186.839 58.923 187.686C57.4687 188.532 55.3468 187.68 53.6147 193.417C53.3649 194.067 53.1871 194.748 53.0852 195.445C53.006 197.108 53.8724 198.294 54.7294 199.667C56.044 201.777 55.4637 201.786 57.3011 203.348Z" fill="#263238" stroke="#263238" stroke-linecap="round" stroke-linejoin="round"/>
<path d="M60.8052 200.654C60.8044 201.125 60.6763 201.586 60.4369 201.978C60.1975 202.369 59.8577 202.674 59.4604 202.854C59.0631 203.034 58.6262 203.08 58.2048 202.988C57.7835 202.895 57.3967 202.668 57.0934 202.334C56.7901 202 56.5838 201.575 56.5007 201.112C56.4176 200.65 56.4614 200.17 56.6265 199.735C56.7917 199.3 57.0708 198.928 57.4285 198.667C57.7862 198.405 58.2065 198.266 58.6362 198.267C59.2121 198.269 59.7637 198.521 60.1702 198.969C60.5767 199.416 60.805 200.022 60.8052 200.654Z" fill="white" stroke="#263238" stroke-linecap="round" stroke-linejoin="round"/>
<path d="M54.6578 205.047C54.6555 206.527 54.6532 207.983 53.446 208.993C52.0947 210.091 46.9147 214.308 49.7509 218.626C52.587 222.944 52.9938 221.75 52.744 223.22C52.4942 224.691 46.9637 228.714 47.9612 232.294C48.9586 235.874 53.0535 237.899 52.4485 239.275C51.8435 240.651 53.6905 247.445 60.8038 243.878C67.917 240.311 67.4365 234.146 64.5956 227.183C63.9369 225.573 64.2505 223.52 66.9324 220.218C69.6142 216.915 67.609 210.57 64.7936 207.382C63.1322 205.489 62.4553 203.983 62.5504 203.618C62.6454 203.253 59.9667 198.935 57.7065 200.215C56.3017 201.012 55.0037 202.535 54.6995 204.326C54.6662 204.564 54.6523 204.806 54.6578 205.047Z" fill="#263238" stroke="#263238" stroke-linecap="round" stroke-linejoin="round"/>
<path d="M65.8655 198.165C65.8655 198.165 64.9679 196.816 64.3673 198.261C64.1408 198.845 64.091 199.493 64.2253 200.109C64.3595 200.726 64.6707 201.279 65.1131 201.687C65.724 202.216 66.168 200.287 66.168 200.287" fill="white"/>
<path d="M65.8655 198.165C65.8655 198.165 64.9679 196.816 64.3673 198.261C64.1408 198.845 64.091 199.493 64.2253 200.109C64.3595 200.726 64.6707 201.279 65.1131 201.687C65.724 202.216 66.168 200.287 66.168 200.287" stroke="#263238" stroke-linecap="round" stroke-linejoin="round"/>
<path d="M295.316 195.485C295.316 195.485 298.167 197.623 297.947 199.495C297.728 201.368 294.867 205.947 294.211 207.302C293.554 208.657 295.079 211.887 295.079 211.887L285.58 214.714C285.697 214.224 285.698 213.718 285.582 213.228C285.366 212.762 284.999 211.545 284.999 211.545L283.099 212.125C282.661 212.254 281.127 211.604 281.054 211.027C280.981 210.449 280.982 210.057 280.909 209.214C280.868 208.346 280.748 207.483 280.55 206.633C280.402 206.376 278.942 205.531 279.017 205.079C279.092 204.627 280.772 202.887 280.92 202.31C281.069 201.733 280.707 200.446 280.851 199.724C280.994 199.002 282.391 196.563 282.391 196.563C282.391 196.563 281.516 195.915 283.93 194.176C286.343 192.438 292.399 191.93 295.316 195.485Z" fill="white" stroke="#263238" stroke-linecap="round" stroke-linejoin="round"/>
<path d="M295.316 195.485C292.399 191.93 286.354 192.438 283.914 194.176C281.474 195.914 282.375 196.563 282.375 196.563L284.567 198.053C284.567 198.053 282.517 200.114 282.812 200.38C283.107 200.646 284.708 202.446 284.708 202.446L284.564 203.047L284.276 202.073C284.276 202.073 283.363 205.281 283.214 206.082C283.065 206.884 283.038 207.186 282.643 207.288C282.247 207.39 280.534 206.637 280.534 206.637C280.534 206.637 280.531 208.538 280.461 209.339C280.391 210.14 280.342 210.797 280.283 211.496C280.224 212.195 281.42 213.361 282.839 213.107C284.258 212.853 285.024 212.202 284.983 211.55C284.942 210.898 285.457 208.648 285.231 208.196C285.005 207.744 284.581 205.502 284.994 204.515C284.994 204.515 285.947 202.709 286.975 202.711C288.004 202.713 288.137 205.163 287.846 205.745C287.555 206.327 287.407 206.648 287.407 206.648C287.407 206.648 287.406 207.035 290.254 207.878C292.394 208.515 293.587 208.163 294.051 207.949C294.06 207.729 294.112 207.511 294.205 207.307C294.862 205.952 297.723 201.372 297.942 199.5C298.161 197.627 295.316 195.485 295.316 195.485Z" fill="#263238" stroke="#263238" stroke-linecap="round" stroke-linejoin="round"/>
<path d="M287.433 206.644C287.433 206.644 286.772 207.546 286.187 207.741C285.601 207.936 285.238 207.222 285.238 207.222" stroke="#263238" stroke-linecap="round" stroke-linejoin="round"/>
<path d="M281.11 202.501C281.109 202.967 281.24 203.34 281.399 203.34C281.557 203.34 281.695 202.968 281.695 202.502C281.696 202.036 281.565 201.663 281.401 201.663C281.238 201.663 281.111 202.04 281.11 202.501Z" fill="#263238"/>
<path d="M282.003 201.468C282.003 201.468 282.152 200.63 280.98 201.001" stroke="#263238" stroke-linecap="round" stroke-linejoin="round"/>
<path d="M281.295 208.497C281.702 208.407 282.079 208.232 282.393 207.987" stroke="white" stroke-linecap="round" stroke-linejoin="round"/>
<path d="M254.499 224.97L271.046 224.996L274.868 236.458L258.321 236.431L254.499 224.97Z" fill="white" stroke="#263238" stroke-linecap="round" stroke-linejoin="round"/>
<path d="M255.674 225.633L270.312 225.656L273.693 235.794L259.055 235.771L255.674 225.633Z" fill="white" stroke="#263238" stroke-linecap="round" stroke-linejoin="round"/>
<path d="M258.435 237.326L278.628 237.358L278.629 236.585L258.436 236.553L258.435 237.326Z" fill="white" stroke="#263238" stroke-linecap="round" stroke-linejoin="round"/>
<path d="M302.584 255.961C302.584 255.961 299.986 273.972 297.518 279.964C295.051 285.956 296.097 287.779 294.421 293.889C292.744 299.998 292.463 314.384 292.462 314.728C292.462 315.073 291.692 314.727 289.004 313.474C287.443 312.772 286.051 311.809 284.904 310.64C284.981 309.916 285.111 309.197 285.293 308.488C285.548 307.557 286.068 305.205 286.068 305.205C286.068 305.205 285.052 297.498 286.227 285.173C287.402 272.848 287.937 258.193 287.937 258.193C287.937 258.193 297.323 257.085 302.584 255.961Z" fill="#263238" stroke="#263238" stroke-linecap="round" stroke-linejoin="round"/>
<path d="M295.652 262.724C295.652 262.724 294.7 274.369 294.23 277.881C293.76 281.393 294.687 288.811 295.734 293.937C296.781 299.064 297.112 309.714 297.112 309.714C297.301 309.821 297.44 309.984 297.504 310.174C297.567 310.364 297.551 310.568 297.459 310.749C297.191 311.252 296.956 311.768 296.755 312.294C296.755 312.294 298.041 312.706 297.924 313.428C297.807 314.15 297.451 315.491 297.451 315.491C296.4 315.584 295.342 315.617 294.286 315.589C292.795 315.585 291.308 315.443 289.85 315.167L288.917 314.755C288.917 314.755 288.682 313.106 288.684 312.174C288.685 311.242 289.858 310.313 289.743 309.805C289.628 309.297 289.052 306.403 288.586 304.031C288.121 301.659 288.476 300.215 287.663 297.74C286.849 295.265 282.32 280.494 282.32 280.494C282.32 280.494 280.237 263.375 280.13 261.003C280.023 258.632 280.02 257.598 280.02 257.598C280.02 257.598 283.643 255.027 284.46 255.029C285.278 255.03 295.652 262.724 295.652 262.724Z" fill="#263238" stroke="#263238" stroke-linecap="round" stroke-linejoin="round"/>
<path d="M279.674 255.86C279.674 255.86 279.269 258.454 279.669 258.981C280.069 259.508 283.539 260.343 287.874 260.764C292.21 261.186 297.754 260.78 299.623 260.191C301.491 259.603 302.695 259.078 302.964 258.664C303.234 258.25 303.032 256.074 303.032 256.074C303.032 256.074 285.771 256.931 279.674 255.86Z" fill="#1DCC48" stroke="#263238" stroke-linecap="round" stroke-linejoin="round"/>
<path d="M296.606 213.437C296.606 213.437 302.741 217.071 303.876 222.831C304.881 227.957 303.206 246.053 303.204 247.022C303.203 247.991 304.034 255.838 304.034 255.838C304.902 257.488 297.784 258.986 293.885 259.302C290.435 259.58 282.808 258.888 280.631 257.929C279.941 257.626 279.277 257.294 279.262 256.614C279.188 253.45 279.017 245.013 279.256 243.756C279.554 242.205 279.246 233.166 279.251 230.068C279.256 226.97 277.95 222.254 279.125 220.252C280.299 218.251 283.297 216.905 283.297 216.905C287.127 214.391 291.844 213.162 296.606 213.437Z" fill="#1DCC48" stroke="#263238" stroke-linecap="round" stroke-linejoin="round"/>
<path d="M296.635 231.755C296.186 232.542 295.655 233.292 295.049 233.993" stroke="#263238" stroke-linecap="round" stroke-linejoin="round"/>
<path d="M300.825 224.037C300.825 224.037 299.412 226.867 297.915 229.548" stroke="#263238" stroke-linecap="round" stroke-linejoin="round"/>
<path d="M297.931 232.982L294.813 236.639" stroke="#263238" stroke-linecap="round" stroke-linejoin="round"/>
<path d="M296.684 210.791L298.067 213.891C298.067 213.891 295.144 214.017 292.438 214.348C289.731 214.679 283.297 216.919 283.297 216.919C283.297 216.919 283.955 214.59 284.467 214.125C286.134 212.675 288.247 211.69 290.543 211.293C292.554 210.878 294.621 210.708 296.684 210.791Z" fill="#1DCC48" stroke="#263238" stroke-linecap="round" stroke-linejoin="round"/>
<path d="M286.056 240.175C286.056 240.175 285.579 245.051 284.993 245.297C284.407 245.543 269.328 240.87 268.247 240.393C267.657 240.134 267.016 239.975 266.359 239.924C266.154 239.868 264.329 239.865 263.654 239.561C263.085 239.219 262.565 238.818 262.105 238.366C261.899 238.249 260.28 238.186 259.811 237.897C259.342 237.607 258.731 237.359 259.137 237.178C259.934 236.959 260.744 236.781 261.564 236.646C261.564 236.646 261.634 235.812 262.447 235.693C263.259 235.573 262.974 235.875 264.948 234.863C266.923 233.85 266.705 234.688 268.392 235.763C270.078 236.837 270.883 238.035 271.089 238.096C271.294 238.157 277.415 240.198 277.415 240.198L286.056 240.175Z" fill="white" stroke="#263238" stroke-linecap="round" stroke-linejoin="round"/>
<path d="M261.543 236.614L264.857 236.26" stroke="#263238" stroke-linecap="round" stroke-linejoin="round"/>
<path d="M272.613 238.537C272.613 238.537 271.685 237.827 271.057 238.068C270.429 238.309 269.515 239.347 269.423 240.633C269.331 241.918 271.7 242.085 271.7 242.085L272.613 238.537Z" fill="#1DCC48" stroke="#263238" stroke-linecap="round" stroke-linejoin="round"/>
<path d="M285.1 217.49C283.882 217.488 280.673 218.266 279.675 219.242C278.676 220.219 278.561 223.051 278.887 226.863C279.213 230.674 280.895 237.814 280.901 237.851C280.901 237.767 280.694 238.228 280.641 238.316C280.419 238.666 280.984 238.722 280.456 238.782C279.996 238.84 279.533 238.871 279.068 238.873L276.748 238.52C275.198 238.281 273.632 238.132 272.059 238.075C271.569 238.074 270.266 241.575 270.998 242.34C271.73 243.105 286.391 248.155 287.378 247.957C288.365 247.758 290.266 236.315 290.24 236.245C290.53 233.105 290.878 229.425 290.942 229.039" fill="#1DCC48"/>
<path d="M285.1 217.49C283.882 217.488 280.673 218.266 279.675 219.242C278.676 220.219 278.561 223.051 278.887 226.863C279.213 230.674 280.895 237.814 280.901 237.851C280.901 237.767 280.694 238.228 280.641 238.316C280.419 238.666 280.984 238.722 280.456 238.782C279.996 238.84 279.533 238.871 279.068 238.873L276.748 238.52C275.198 238.281 273.632 238.132 272.059 238.075C271.569 238.074 270.266 241.575 270.998 242.34C271.73 243.105 286.391 248.155 287.378 247.957C288.365 247.758 290.266 236.315 290.24 236.245C290.53 233.105 290.878 229.425 290.942 229.039" stroke="#263238" stroke-linecap="round" stroke-linejoin="round"/>
<path d="M280.456 238.791C281.42 239.686 282.453 240.52 283.548 241.289" stroke="#263238" stroke-linecap="round" stroke-linejoin="round"/>
<path d="M281.819 241.048C282.472 241.59 283.206 242.051 284 242.417" stroke="#263238" stroke-linecap="round" stroke-linejoin="round"/>
</g>
<path d="M313.782 314.398L322.936 314.388" stroke="#263238" stroke-linecap="round" stroke-linejoin="round"/>
<path d="M0.749878 314.719L307.074 314.394" stroke="#263238" stroke-linecap="round" stroke-linejoin="round"/>
<defs>
<clipPath id="clip0_0_1">
<rect width="320.473" height="302.174" fill="white" transform="translate(24.0091 0.31488) rotate(0.0913758)"/>
</clipPath>
</defs>
</svg>
